<svg width="28" height="28" viewBox="0 0 28 28" fill="none" xmlns="http://www.w3.org/2000/svg">
<path d="M4.66659 7H2.33325V23.3333C2.33325 24.6167 3.38325 25.6667 4.66659 25.6667H20.9999V23.3333H4.66659V7ZM23.3333 2.33333H9.33325C8.04992 2.33333 6.99992 3.38333 6.99992 4.66667V18.6667C6.99992 19.95 8.04992 21 9.33325 21H23.3333C24.6166 21 25.6666 19.95 25.6666 18.6667V4.66667C25.6666 3.38333 24.6166 2.33333 23.3333 2.33333ZM22.1666 12.8333H10.4999V10.5H22.1666V12.8333ZM17.4999 17.5H10.4999V15.1667H17.4999V17.5ZM22.1666 8.16667H10.4999V5.83333H22.1666V8.16667Z" fill="#3252DF"/>
</svg>
