<svg width="40" height="40" viewBox="0 0 40 40" fill="none" xmlns="http://www.w3.org/2000/svg">
<path d="M26.6667 18.3333C29.4334 18.3333 31.6501 16.1 31.6501 13.3333C31.6501 10.5667 29.4334 8.33333 26.6667 8.33333C23.9001 8.33333 21.6667 10.5667 21.6667 13.3333C21.6667 16.1 23.9001 18.3333 26.6667 18.3333ZM13.3334 18.3333C16.1001 18.3333 18.3167 16.1 18.3167 13.3333C18.3167 10.5667 16.1001 8.33333 13.3334 8.33333C10.5667 8.33333 8.33341 10.5667 8.33341 13.3333C8.33341 16.1 10.5667 18.3333 13.3334 18.3333ZM13.3334 21.6667C9.45008 21.6667 1.66675 23.6167 1.66675 27.5V31.6667H25.0001V27.5C25.0001 23.6167 17.2167 21.6667 13.3334 21.6667ZM26.6667 21.6667C26.1834 21.6667 25.6334 21.7 25.0501 21.75C26.9834 23.15 28.3334 25.0333 28.3334 27.5V31.6667H38.3334V27.5C38.3334 23.6167 30.5501 21.6667 26.6667 21.6667Z" fill="#3252DF"/>
</svg>
