<svg width="31" height="31" viewBox="0 0 31 31" fill="none" xmlns="http://www.w3.org/2000/svg">
<path d="M23.5083 1.29167H12.6583C11.3795 1.29167 10.3333 2.33792 10.3333 3.61667V22.2167C10.3333 23.4954 11.3795 24.5288 12.6583 24.5288L23.5083 24.5417C24.787 24.5417 25.8333 23.4954 25.8333 22.2167V3.61667C25.8333 2.33792 24.787 1.29167 23.5083 1.29167ZM18.0833 3.875C19.5041 3.875 20.6666 5.02458 20.6666 6.45833C20.6666 7.89208 19.5041 9.04167 18.0833 9.04167C16.6624 9.04167 15.4999 7.89208 15.4999 6.45833C15.4999 5.02458 16.6624 3.875 18.0833 3.875ZM18.0833 21.3125C15.2287 21.3125 12.9166 19.0004 12.9166 16.1458C12.9166 13.2913 15.2287 10.9792 18.0833 10.9792C20.9378 10.9792 23.2499 13.2913 23.2499 16.1458C23.2499 19.0004 20.9378 21.3125 18.0833 21.3125Z" fill="#3252DF"/>
<path d="M18.0834 19.375C19.8668 19.375 21.3126 17.9293 21.3126 16.1458C21.3126 14.3624 19.8668 12.9167 18.0834 12.9167C16.3 12.9167 14.8542 14.3624 14.8542 16.1458C14.8542 17.9293 16.3 19.375 18.0834 19.375Z" fill="#3252DF"/>
<path d="M7.75008 6.45833H5.16675V27.125C5.16675 28.5458 6.31633 29.7083 7.75008 29.7083H20.6667V27.125H7.75008V6.45833Z" fill="#3252DF"/>
</svg>
